# xmcd
#
# Track frame offsets:
#	150
#	18278
#	40351
#	62433
#	88547
#	106342
#	125176
#	148228
#	170477
#	187393
#	207812
#	223889
#	245636
#	271493
#	296216
#	313675
#	330674
#
# Disc length: 4713
#
# Revision: 1
# Processed by: cddbd v1.5.1PL0 Copyright (c) Steve Scherf et al.
# Submitted via: ExactAudioCopy v0.95a5
# Normalized: r0:TRMNUM
#
DISCID=16126711
DTITLE=朴树 - 生如夏花
DYEAR=2003
DGENRE=Blues
TTITLE0=傻子才悲伤
TTITLE1=我爱你，再见
TTITLE2=傲慢的上校
TTITLE3=来不及
TTITLE4=Colorful Days
TTITLE5=今夜的滋味
TTITLE6=苏珊的舞鞋
TTITLE7=生如夏花
TTITLE8=且听风吟
TTITLE9=La Perte
TTITLE10=她在睡梦中
TTITLE11=冲出你的窗口
TTITLE12=火车开往冬天
TTITLE13=我去2000年
TTITLE14=白桦林
TTITLE15=New BOY
TTITLE16=那些花儿
EXTD=
EXTT0=
EXTT1=
EXTT2=
EXTT3=
EXTT4=
EXTT5=
EXTT6=
EXTT7=
EXTT8=
EXTT9=
EXTT10=
EXTT11=
EXTT12=
EXTT13=
EXTT14=
EXTT15=
EXTT16=
PLAYORDER=
